<svg width="26" height="26" viewBox="0 0 26 26" fill="none" xmlns="http://www.w3.org/2000/svg">
<path d="M6.49967 20.5833C5.78835 20.5833 5.08399 20.4432 4.42681 20.171C3.76963 19.8988 3.1725 19.4998 2.66951 18.9968C1.65369 17.981 1.08301 16.6032 1.08301 15.1666C1.08301 13.73 1.65369 12.3523 2.66951 11.3365C3.68533 10.3206 5.06309 9.74996 6.49967 9.74996C7.58301 7.20413 10.0747 5.41663 12.9997 5.41663C16.7155 5.41663 19.7597 8.29829 20.0413 11.9491L20.583 11.9166C21.7323 11.9166 22.8345 12.3732 23.6471 13.1858C24.4598 13.9985 24.9163 15.1007 24.9163 16.25C24.9163 17.3992 24.4598 18.5014 23.6471 19.3141C22.8345 20.1267 21.7323 20.5833 20.583 20.5833H6.49967ZM20.583 14.0833H18.4163V13C18.4163 11.5634 17.8457 10.1856 16.8298 9.1698C15.814 8.15398 14.4363 7.58329 12.9997 7.58329C10.2913 7.58329 8.07051 9.55496 7.64801 12.1225C7.29051 11.9925 6.90051 11.9166 6.49967 11.9166C5.63772 11.9166 4.81107 12.259 4.20158 12.8685C3.59208 13.478 3.24967 14.3047 3.24967 15.1666C3.24967 16.0286 3.59208 16.8552 4.20158 17.4647C4.81107 18.0742 5.63772 18.4166 6.49967 18.4166H20.583C21.1576 18.4166 21.7087 18.1884 22.1151 17.782C22.5214 17.3757 22.7497 16.8246 22.7497 16.25C22.7497 15.6753 22.5214 15.1242 22.1151 14.7179C21.7087 14.3116 21.1576 14.0833 20.583 14.0833Z" fill="white"/>
</svg>
